<svg width="120px" height="64px" xmlns="http://www.w3.org/2000/svg" viewBox="185 18 129 110" style="background: rgba(89, 104, 134, 0);" preserveAspectRatio="xMidYMid"><defs><filter id="editing-hover" x="-100%" y="-100%" width="300%" height="300%"><feFlood flood-color="rgba(1.9607843137254888%,16.862745098039188%,29.01960784313726%,0)" result="flood"></feFlood><feComposite operator="in" in2="SourceAlpha" in="flood" result="shadow"></feComposite><feOffset dx="-2.6" dy="-4" in="SourceGraphic" result="offset-1"></feOffset><feOffset dx="2.6" dy="4" in="shadow" result="offset-2"></feOffset><feMerge><feMergeNode in="offset-2"></feMergeNode><feMergeNode in="offset-1"></feMergeNode></feMerge></filter></defs><g filter="url(#editing-hover)"><g transform="translate(208.59001350402832, 97.78000068664551)"><path d="M26.75 0.38L26.75 0.38Q20.10 0.38 14.75-2.56L14.75-2.56L14.75-2.56Q9.41-5.50 6.37-10.72L6.37-10.72L6.37-10.72Q3.33-15.94 3.33-22.40L3.33-22.40L3.33-22.40Q3.33-28.86 6.37-34.08L6.37-34.08L6.37-34.08Q9.41-39.30 14.78-42.24L14.78-42.24L14.78-42.24Q20.16-45.18 26.82-45.18L26.82-45.18L26.82-45.18Q31.81-45.18 36.03-43.52L36.03-43.52L36.03-43.52Q40.26-41.86 43.20-38.66L43.20-38.66L40.19-35.65L40.19-35.65Q34.94-40.96 26.94-40.96L26.94-40.96L26.94-40.96Q21.63-40.96 17.28-38.53L17.28-38.53L17.28-38.53Q12.93-36.10 10.46-31.87L10.46-31.87L10.46-31.87Q8-27.65 8-22.40L8-22.40L8-22.40Q8-17.15 10.46-12.93L10.46-12.93L10.46-12.93Q12.93-8.70 17.28-6.27L17.28-6.27L17.28-6.27Q21.63-3.84 26.94-3.84L26.94-3.84L26.94-3.84Q35.01-3.84 40.19-9.22L40.19-9.22L43.20-6.21L43.20-6.21Q40.26-3.01 36-1.31L36-1.31L36-1.31Q31.74 0.38 26.75 0.38L26.75 0.38ZM66.30 0.32L66.30 0.32Q61.31 0.32 57.38-1.86L57.38-1.86L57.38-1.86Q53.44-4.03 51.20-7.97L51.20-7.97L51.20-7.97Q48.96-11.90 48.96-16.83L48.96-16.83L48.96-16.83Q48.96-21.76 51.20-25.66L51.20-25.66L51.20-25.66Q53.44-29.57 57.38-31.74L57.38-31.74L57.38-31.74Q61.31-33.92 66.30-33.92L66.30-33.92L66.30-33.92Q70.66-33.92 74.08-32.22L74.08-32.22L74.08-32.22Q77.50-30.53 79.49-27.26L79.49-27.26L76.10-24.96L76.10-24.96Q74.43-27.46 71.87-28.70L71.87-28.70L71.87-28.70Q69.31-29.95 66.30-29.95L66.30-29.95L66.30-29.95Q62.66-29.95 59.74-28.32L59.74-28.32L59.74-28.32Q56.83-26.69 55.20-23.68L55.20-23.68L55.20-23.68Q53.57-20.67 53.57-16.83L53.57-16.83L53.57-16.83Q53.57-12.93 55.20-9.95L55.20-9.95L55.20-9.95Q56.83-6.98 59.74-5.34L59.74-5.34L59.74-5.34Q62.66-3.71 66.30-3.71L66.30-3.71L66.30-3.71Q69.31-3.71 71.87-4.93L71.87-4.93L71.87-4.93Q74.43-6.14 76.10-8.64L76.10-8.64L79.49-6.34L79.49-6.34Q77.50-3.07 74.05-1.38L74.05-1.38L74.05-1.38Q70.59 0.32 66.30 0.32L66.30 0.32Z" fill="#fee3c0"></path></g></g><style>text {
  font-size: 64px;
  font-family: Arial Black;
  dominant-baseline: central;
  text-anchor: middle;
}</style></svg>