<svg width="74.7875px" height="72.8px" xmlns="http://www.w3.org/2000/svg" viewBox="212.60625 38.6 74.7875 72.8" style="background: rgba(89, 104, 134, 0);" preserveAspectRatio="xMidYMid"><defs><filter id="editing-hover" x="-100%" y="-100%" width="300%" height="300%"><feFlood flood-color="rgba(1.9607843137254888%,16.862745098039188%,29.01960784313726%,0)" result="flood"></feFlood><feComposite operator="in" in2="SourceAlpha" in="flood" result="shadow"></feComposite><feOffset dx="4.9" dy="-4" in="SourceGraphic" result="offset-1"></feOffset><feOffset dx="-4.9" dy="4" in="shadow" result="offset-2"></feOffset><feMerge><feMergeNode in="offset-2"></feMergeNode><feMergeNode in="offset-1"></feMergeNode></feMerge></filter></defs><g filter="url(#editing-hover)"><g transform="translate(229.3000066280365, 86.38999843597412)"><path d="M13.38 0.19L13.38 0.19Q10.05 0.19 7.38-1.28L7.38-1.28L7.38-1.28Q4.70-2.75 3.18-5.36L3.18-5.36L3.18-5.36Q1.66-7.97 1.66-11.20L1.66-11.20L1.66-11.20Q1.66-14.43 3.18-17.04L3.18-17.04L3.18-17.04Q4.70-19.65 7.39-21.12L7.39-21.12L7.39-21.12Q10.08-22.59 13.41-22.59L13.41-22.59L13.41-22.59Q15.90-22.59 18.02-21.76L18.02-21.76L18.02-21.76Q20.13-20.93 21.60-19.33L21.60-19.33L20.10-17.82L20.10-17.82Q17.47-20.48 13.47-20.48L13.47-20.48L13.47-20.48Q10.82-20.48 8.64-19.26L8.64-19.26L8.64-19.26Q6.46-18.05 5.23-15.94L5.23-15.94L5.23-15.94Q4-13.82 4-11.20L4-11.20L4-11.20Q4-8.58 5.23-6.46L5.23-6.46L5.23-6.46Q6.46-4.35 8.64-3.14L8.64-3.14L8.64-3.14Q10.82-1.92 13.47-1.92L13.47-1.92L13.47-1.92Q17.50-1.92 20.10-4.61L20.10-4.61L21.60-3.10L21.60-3.10Q20.13-1.50 18-0.66L18-0.66L18-0.66Q15.87 0.19 13.38 0.19L13.38 0.19ZM33.15 0.16L33.15 0.16Q30.66 0.16 28.69-0.93L28.69-0.93L28.69-0.93Q26.72-2.02 25.60-3.98L25.60-3.98L25.60-3.98Q24.48-5.95 24.48-8.42L24.48-8.42L24.48-8.42Q24.48-10.88 25.60-12.83L25.60-12.83L25.60-12.83Q26.72-14.78 28.69-15.87L28.69-15.87L28.69-15.87Q30.66-16.96 33.15-16.96L33.15-16.96L33.15-16.96Q35.33-16.96 37.04-16.11L37.04-16.11L37.04-16.11Q38.75-15.26 39.74-13.63L39.74-13.63L38.05-12.48L38.05-12.48Q37.22-13.73 35.94-14.35L35.94-14.35L35.94-14.35Q34.66-14.98 33.15-14.98L33.15-14.98L33.15-14.98Q31.33-14.98 29.87-14.16L29.87-14.16L29.87-14.16Q28.42-13.34 27.60-11.84L27.60-11.84L27.60-11.84Q26.78-10.34 26.78-8.42L26.78-8.42L26.78-8.42Q26.78-6.46 27.60-4.98L27.60-4.98L27.60-4.98Q28.42-3.49 29.87-2.67L29.87-2.67L29.87-2.67Q31.33-1.86 33.15-1.86L33.15-1.86L33.15-1.86Q34.66-1.86 35.94-2.46L35.94-2.46L35.94-2.46Q37.22-3.07 38.05-4.32L38.05-4.32L39.74-3.17L39.74-3.17Q38.75-1.54 37.02-0.69L37.02-0.69L37.02-0.69Q35.30 0.16 33.15 0.16L33.15 0.16Z" fill="#fee3c0"></path></g></g><style>text {
  font-size: 64px;
  font-family: Arial Black;
  dominant-baseline: central;
  text-anchor: middle;
}</style></svg>